<svg xmlns="http://www.w3.org/2000/svg" width="385.099" height="427.066" viewBox="0 0 385.099 427.066">
  <g id="Bar_inactive" data-name="Bar inactive" transform="translate(1873.33 -691.636)">
    <g id="Follow" transform="translate(-1873.33 691.636)">
      <path id="Path_694" data-name="Path 694" d="M877.4,854.988V705.228c0-23.041-11.519-42.79-31.269-54.308l-130.013-75.7a60.9,60.9,0,0,0-62.537,0l-130.012,75.7C503.82,662.438,492.3,682.188,492.3,705.228v149.76c0,23.041,11.52,42.789,31.269,54.309L653.581,985a60.9,60.9,0,0,0,62.537,0l130.013-75.7A63.508,63.508,0,0,0,877.4,854.988Z" transform="translate(-492.3 -566.575)" fill="#f1f1f2"/>
      <g id="Group_17" data-name="Group 17" transform="translate(54.507 72.772)">
        <path id="Path_695" data-name="Path 695" d="M700.689,838.6l-52.106-27.425a23.428,23.428,0,0,0-19.2,0L577.277,838.6c-16.455,8.226-32.911-5.486-30.167-21.941l8.227-57.591c0-8.226,0-13.712-5.486-19.2l-43.88-41.136c-13.713-10.972-5.484-32.911,10.97-35.654l57.593-10.97c8.227,0,13.712-5.486,16.455-10.97l24.683-54.851c8.227-16.455,30.168-16.455,38.394,0L681.491,638.4c2.744,5.486,8.228,10.97,16.455,10.97l60.336,8.228c16.455,2.741,24.682,24.683,13.713,35.652l-41.138,41.138c-5.486,5.484-8.227,10.97-5.486,19.2l10.97,57.593C733.6,833.118,717.146,846.831,700.689,838.6Z" transform="translate(-499.048 -573.95)" fill="none" stroke="#404041" stroke-miterlimit="10" stroke-width="5"/>
        <line id="Line_1" data-name="Line 1" x2="35.653" transform="translate(78.229 116.558)" fill="none" stroke="#404041" stroke-miterlimit="10" stroke-width="5"/>
        <line id="Line_2" data-name="Line 2" x2="41.138" transform="translate(146.792 116.558)" fill="none" stroke="#404041" stroke-miterlimit="10" stroke-width="5"/>
      </g>
    </g>
  </g>
</svg>
