<svg xmlns="http://www.w3.org/2000/svg" width="32.578" height="37" viewBox="0 0 32.578 37">
  <g id="_beans" data-name=" beans" transform="translate(-10193 -804)">
    <g id="_Group_2" data-name=" Group 2" transform="translate(10193 804)">
      <path id="Path_1191" data-name="Path 1191" d="M96.637,32.4c5.574,8.158,6.147,17.727,1.772,22.866-5.652-8.256-10.008-5.29-15.666-13.571s-1.056-10.9-6.72-19.19L76,22.435C82.377,20.241,91.069,24.252,96.637,32.4Z" transform="translate(-68.728 -21.841)" fill="#fedb41"/>
      <path id="Path_1196" data-name="Path 1196" d="M81.31,56.659a9.954,9.954,0,0,1-1.975,1.781C72.916,62.827,62.6,58.9,56.3,49.677s-6.215-20.261.2-24.644a9.984,9.984,0,0,1,2.4-1.2l.024.069c5.663,8.286,1.056,10.9,6.72,19.19S75.658,48.4,81.31,56.659Z" transform="translate(-51.628 -23.237)" fill="#f4b844"/>
    </g>
  </g>
</svg>
