<svg xmlns="http://www.w3.org/2000/svg" width="378.955" height="420.25" viewBox="0 0 378.955 420.25">
  <g id="Explore_Active" data-name="Explore Active" transform="translate(2289.848 -1209.636)">
    <g id="Explore" transform="translate(-2289.848 1209.636)">
      <path id="Path_691" data-name="Path 691" d="M871.255,850.386V703.015c0-22.672-11.336-42.105-30.77-53.442l-127.938-74.5a59.932,59.932,0,0,0-61.539,0l-127.937,74.5c-19.435,11.337-30.77,30.77-30.77,53.442V850.386c0,22.672,11.337,42.1,30.77,53.442l127.938,74.495a59.926,59.926,0,0,0,61.539,0l127.938-74.495A62.5,62.5,0,0,0,871.255,850.386Z" transform="translate(-492.3 -566.575)" fill="#e1233f"/>
      <path id="Path_692" data-name="Path 692" d="M742.087,696.442A121.443,121.443,0,1,1,620.644,575,120.938,120.938,0,0,1,742.087,696.442Z" transform="translate(-434.001 -486.841)" fill="none" stroke="#fff" stroke-miterlimit="10" stroke-width="5"/>
      <ellipse id="Ellipse_47" data-name="Ellipse 47" cx="18.891" cy="18.891" rx="18.891" ry="18.891" transform="translate(127.164 201.361)" fill="none" stroke="#fff" stroke-miterlimit="10" stroke-width="5"/>
      <g id="Group_16" data-name="Group 16" transform="translate(32.224 158.308)">
        <path id="Path_693" data-name="Path 693" d="M811.582,584.52c-2.7-8.1-24.29-8.1-51.278-2.7v5.4c13.494-2.7,26.988-5.4,35.083-5.4s10.8,0,10.8,2.7-5.4,13.494-37.784,29.686c-26.985,16.191-64.769,32.384-105.249,48.577-94.455,35.083-156.527,43.178-159.225,35.083-2.7-5.4,10.795-13.494,32.386-26.988,0-2.7-2.7-2.7-2.7-5.4-24.288,13.494-37.782,26.986-35.083,35.083,2.7,5.4,8.1,5.4,18.892,5.4,32.384,0,99.853-21.589,148.431-37.783,40.48-16.19,78.262-32.384,107.95-48.577C816.979,595.316,814.28,587.221,811.582,584.52Z" transform="translate(-498.187 -578.061)" fill="#e1233f" stroke="#fff" stroke-miterlimit="10" stroke-width="3"/>
      </g>
    </g>
  </g>
</svg>
