<svg id="Go_to_use" data-name="Go to use" xmlns="http://www.w3.org/2000/svg" xmlns:xlink="http://www.w3.org/1999/xlink" width="20" height="20" viewBox="0 0 20 20">
  <defs>
    <linearGradient id="linear-gradient" x1="0.5" x2="0.5" y2="1" gradientUnits="objectBoundingBox">
      <stop offset="0" stop-color="#f42408"/>
      <stop offset="1" stop-color="#a72104"/>
    </linearGradient>
  </defs>
  <g id="Group_502" data-name="Group 502">
    <rect id="Rectangle_1590" data-name="Rectangle 1590" width="20" height="20" fill="none"/>
  </g>
  <g id="Group_504" data-name="Group 504" transform="translate(2.005 3)">
    <g id="Group_503" data-name="Group 503">
      <path id="Path_1199" data-name="Path 1199" d="M17.92,7.581l-.84-3.4A1.563,1.563,0,0,0,15.552,3H4.441a1.562,1.562,0,0,0-1.52,1.182l-.84,3.4a2.569,2.569,0,0,0,.5,2.24,3.021,3.021,0,0,0,.224.226v5.4A1.583,1.583,0,0,0,4.4,17H15.6a1.583,1.583,0,0,0,1.6-1.556v-5.4a2.919,2.919,0,0,0,.224-.218A2.56,2.56,0,0,0,17.92,7.581ZM15.528,4.548l.84,3.4a1.032,1.032,0,0,1-.2.91.946.946,0,0,1-.752.366.989.989,0,0,1-.968-.887l-.464-3.78ZM10.8,4.556h1.568L12.8,8.071a1.026,1.026,0,0,1-.264.832.966.966,0,0,1-.76.319A1,1,0,0,1,10.8,8.2ZM7.193,8.071l.44-3.516H9.2V8.2A1.013,1.013,0,0,1,8.169,9.222.974.974,0,0,1,7.457,8.9,1.084,1.084,0,0,1,7.193,8.071Zm-3.56-.124.808-3.391H6.017l-.464,3.78a1,1,0,0,1-.968.887.928.928,0,0,1-.744-.366A1.007,1.007,0,0,1,3.633,7.947Zm.768,7.5v-4.69a1.487,1.487,0,0,0,.184.023,2.538,2.538,0,0,0,1.792-.739,2.61,2.61,0,0,0,1.848.739,2.573,2.573,0,0,0,1.784-.723,2.661,2.661,0,0,0,1.832.723,2.576,2.576,0,0,0,1.792-.739,2.538,2.538,0,0,0,1.792.739,1.487,1.487,0,0,0,.184-.023v4.69Z" transform="translate(-2.005 -3)" fill="url(#linear-gradient)"/>
    </g>
  </g>
</svg>
