<svg xmlns="http://www.w3.org/2000/svg" width="385.651" height="427.677" viewBox="0 0 385.651 427.677">
  <g id="Home_inactive" data-name="Home inactive" transform="translate(1471 -691)">
    <path id="Path_699" data-name="Path 699" d="M877.951,855.4V705.426c0-23.074-11.536-42.851-31.314-54.386l-130.2-75.812a60.986,60.986,0,0,0-62.627,0l-130.2,75.812c-19.777,11.535-31.314,31.314-31.314,54.386V855.4c0,23.073,11.537,42.85,31.314,54.386l130.2,75.812a60.991,60.991,0,0,0,62.627,0l130.2-75.812A63.6,63.6,0,0,0,877.951,855.4Z" transform="translate(-1963.3 124.425)" fill="#f1f1f2"/>
    <g id="Group_812" data-name="Group 812" transform="translate(-0.919 1.618)">
      <path id="Path_700" data-name="Path 700" d="M510.134,652.716,572.7,587.955c18.769-18.214,50.053-18.214,66.738,2.024l52.139,62.735c6.256,8.1,10.427,18.214,10.427,26.308v52.616c0,24.285-20.856,42.5-43.8,42.5H543.5c-25.027,0-43.8-20.238-43.8-42.5V681.045C497.621,670.928,501.792,660.81,510.134,652.716Z" transform="translate(-1878.255 228.845)" fill="none" stroke="#404041" stroke-miterlimit="10" stroke-width="5"/>
      <line id="Line_3" data-name="Line 3" x2="90.632" transform="translate(-1321.279 880.772)" fill="none" stroke="#404041" stroke-miterlimit="10" stroke-width="5"/>
      <path id="Path_701" data-name="Path 701" d="M531.709,632.182h-8.239c-10.986,0-21.971-8.239-21.971-21.971v-8.239c0-10.986,8.239-21.972,21.971-21.972h8.239c10.986,0,21.972,8.24,21.972,21.972v8.239C550.934,621.2,542.7,632.182,531.709,632.182Z" transform="translate(-1829.796 320.107)" fill="none" stroke="#404041" stroke-miterlimit="10" stroke-width="5"/>
      <path id="Path_702" data-name="Path 702" d="M535.211,632.182h-8.239c-10.986,0-21.972-8.239-21.972-21.971v-8.239C505,590.986,513.24,580,526.972,580h8.239c10.986,0,21.97,8.24,21.97,21.972v8.239C557.181,621.2,546.2,632.182,535.211,632.182Z" transform="translate(-1779.011 320.107)" fill="none" stroke="#404041" stroke-miterlimit="10" stroke-width="5"/>
    </g>
  </g>
</svg>
