<svg xmlns="http://www.w3.org/2000/svg" width="331.647" height="365.593" viewBox="0 0 331.647 365.593">
  <g id="Live" transform="translate(0.5 0.5)">
    <path id="Path_703" data-name="Path 703" d="M821.448,811.414V683.178a54.862,54.862,0,0,0-26.4-46.517L683.154,572.544c-16.344-10.058-36.459-10.058-54.061,0L517.2,636.661a54.864,54.864,0,0,0-26.4,46.517V811.414a54.866,54.866,0,0,0,26.4,46.518L629.094,922.05c16.344,10.058,36.459,10.058,54.061,0l111.892-64.118A54.864,54.864,0,0,0,821.448,811.414Z" transform="translate(-490.8 -565)" fill="#fff" stroke="#231f20" stroke-miterlimit="10" stroke-width="1"/>
    <path id="Path_704" data-name="Path 704" d="M693.657,720.877V641.35A32.619,32.619,0,0,0,677.54,612.8l-67.493-39.764a30.6,30.6,0,0,0-32.236,0L510.318,612.8A32.619,32.619,0,0,0,494.2,641.35v79.527a32.619,32.619,0,0,0,16.118,28.548l67.493,39.764a30.608,30.608,0,0,0,32.236,0l67.493-39.764C686.605,743.308,693.657,732.093,693.657,720.877Z" transform="translate(-425.578 -498.816)" fill="#0a1622"/>
  </g>
</svg>
