<svg xmlns="http://www.w3.org/2000/svg" width="389.748" height="432.22" viewBox="0 0 389.748 432.22">
  <g id="Profile_Active" data-name="Profile Active" transform="translate(1075.962 -1208.5)">
    <g id="Profile_inactive" data-name="Profile inactive" transform="translate(-1075.962 1208.5)">
      <path id="Path_705" data-name="Path 705" d="M882.048,858.47V706.9c0-23.318-11.659-43.305-31.646-54.964L718.82,575.319a61.635,61.635,0,0,0-63.292,0L523.946,651.937C503.959,663.6,492.3,683.582,492.3,706.9V858.47c0,23.318,11.659,43.305,31.646,54.964l131.583,76.617a61.638,61.638,0,0,0,63.292,0L850.4,913.433A64.274,64.274,0,0,0,882.048,858.47Z" transform="translate(-492.3 -566.575)" fill="#e1233f"/>
      <g id="Group_18" data-name="Group 18" transform="translate(128.335 143.673)">
        <path id="Path_706" data-name="Path 706" d="M628.457,627.857v-9.612c0-8.01-3.2-14.418-8.01-20.825a38.275,38.275,0,0,0-20.826-11.214H540.349q-14.418,0-24.029,9.612c-6.408,4.805-9.612,12.814-9.612,20.825v11.214H500.3c0-9.612,0-20.825,6.408-28.836,4.806-6.408,9.612-11.214,16.019-14.418s12.816-3.2,19.223-3.2h52.865a44.336,44.336,0,0,1,20.825,4.806,46.531,46.531,0,0,1,17.621,17.621c3.2,6.408,3.2,11.214,3.2,17.621v6.408Z" transform="translate(-500.3 -486.885)" fill="#fefefe" stroke="#231f20" stroke-miterlimit="10" stroke-width="0.1"/>
        <path id="Path_707" data-name="Path 707" d="M502.1,612.345c0-20.826,16.02-36.845,36.845-36.845s36.845,16.02,36.845,36.845-16.02,36.844-36.845,36.844S502.1,631.568,502.1,612.345Zm36.845-32.04a30.417,30.417,0,0,0-30.437,30.438c0,17.621,14.417,32.039,32.039,30.437,16.02,0,30.437-14.417,30.437-30.437C569.382,593.121,554.964,580.305,538.945,580.305Z" transform="translate(-473.265 -575.5)" fill="#fefefe" stroke="#231f20" stroke-miterlimit="10" stroke-width="0.3"/>
      </g>
    </g>
  </g>
</svg>
